<svg width="148" height="32" viewBox="0 0 148 32" fill="none" xmlns="http://www.w3.org/2000/svg">
<g clip-path="url(#clip0_133_24)">
<path d="M29.031 0H2.45942C1.10112 0 0 1.10398 0 2.46581V29.1064C0 30.4682 1.10112 31.5722 2.45942 31.5722H29.031C30.3894 31.5722 31.4905 30.4682 31.4905 29.1064V2.46581C31.4905 1.10398 30.3894 0 29.031 0Z" fill="#3F3D89"/>
<mask id="mask0_133_24" style="mask-type:luminance" maskUnits="userSpaceOnUse" x="0" y="0" width="32" height="32">
<path d="M29.031 0H2.45942C1.10112 0 0 1.10398 0 2.46581V29.1064C0 30.4682 1.10112 31.5722 2.45942 31.5722H29.031C30.3894 31.5722 31.4905 30.4682 31.4905 29.1064V2.46581C31.4905 1.10398 30.3894 0 29.031 0Z" fill="white"/>
</mask>
<g mask="url(#mask0_133_24)">
<path d="M15.7333 -18.715L-6.53735 3.6134L15.7333 25.9418L38.0039 3.6134L15.7333 -18.715Z" fill="#FEB63A"/>
<path d="M15.7399 20.912L0.245605 36.4465L15.7399 51.981L31.2342 36.4465L15.7399 20.912Z" fill="#3F3D89"/>
<path d="M24.1846 16.9793L15.7544 8.52722L7.32423 16.9793L15.7544 25.4313L24.1846 16.9793Z" fill="#FDFCFB"/>
<path d="M15.7329 5.81812C14.9631 9.42312 12.1151 12.2551 8.50708 12.9911L15.7329 20.2357L22.9587 12.9911C19.3495 12.2551 16.5027 9.42312 15.7329 5.81812Z" fill="#FDFCFB"/>
<path d="M-1.43082 8.29417L-16.3147 23.2167L-1.43081 38.1392L13.4531 23.2167L-1.43082 8.29417Z" fill="#F96474"/>
<path d="M15.7329 20.1358C17.4987 20.1358 18.9301 18.7007 18.9301 16.9303C18.9301 15.1599 17.4987 13.7247 15.7329 13.7247C13.9671 13.7247 12.5356 15.1599 12.5356 16.9303C12.5356 18.7007 13.9671 20.1358 15.7329 20.1358Z" fill="#3F3D89"/>
<path d="M32.9269 8.29735L18.043 23.2198L32.9269 38.1424L47.8107 23.2198L32.9269 8.29735Z" fill="#F96474"/>
</g>
</g>
<path d="M46.4248 9.71556V17.5812H50.3576C50.8966 17.5812 51.4036 17.4807 51.8786 17.2797C52.3537 17.0696 52.7693 16.7864 53.1256 16.4301C53.4819 16.0738 53.7605 15.6582 53.9615 15.1831C54.1716 14.699 54.2767 14.1874 54.2767 13.6484C54.2767 13.1094 54.1716 12.6024 53.9615 12.1273C53.7605 11.6431 53.4819 11.2229 53.1256 10.8666C52.7693 10.5103 52.3537 10.2317 51.8786 10.0307C51.4036 9.82062 50.8966 9.71556 50.3576 9.71556H46.4248ZM46.4248 25.4331H42.4919V5.78274H50.3576C51.0793 5.78274 51.7736 5.87867 52.4405 6.07051C53.1074 6.25322 53.7286 6.51815 54.3041 6.8653C54.8888 7.20331 55.4186 7.6144 55.8937 8.09858C56.3779 8.57363 56.789 9.10349 57.127 9.68816C57.4741 10.2728 57.739 10.8986 57.9218 11.5655C58.1136 12.2324 58.2095 12.9267 58.2095 13.6484C58.2095 14.3244 58.1227 14.9822 57.9492 15.6216C57.7847 16.2611 57.5426 16.8686 57.2229 17.4442C56.9123 18.0197 56.5286 18.5496 56.0718 19.0337C55.615 19.5179 55.1035 19.9382 54.5371 20.2944L56.7159 25.4331H52.5364L50.8235 21.4729L46.4248 21.5003V25.4331Z" fill="url(#paint0_linear_133_24)"/>
<path d="M67.1977 21.8429C67.3439 21.8886 67.4901 21.9205 67.6362 21.9388C67.7824 21.948 67.9286 21.9525 68.0747 21.9525C68.4401 21.9525 68.7919 21.9023 69.1299 21.8018C69.4679 21.7013 69.7831 21.5597 70.0754 21.377C70.3769 21.1851 70.6418 20.9568 70.8702 20.6918C71.1077 20.4178 71.2995 20.1163 71.4457 19.7874L74.1864 22.5418C73.8392 23.0351 73.4372 23.4781 72.9805 23.871C72.5328 24.2638 72.0441 24.5972 71.5142 24.8713C70.9935 25.1454 70.4408 25.3509 69.8561 25.4879C69.2806 25.6341 68.6868 25.7072 68.0747 25.7072C67.0424 25.7072 66.0695 25.5154 65.1559 25.1317C64.2515 24.748 63.4567 24.2136 62.7716 23.5284C62.0956 22.8432 61.5611 22.0302 61.1683 21.0892C60.7755 20.1391 60.5791 19.0977 60.5791 17.9649C60.5791 16.8047 60.7755 15.745 61.1683 14.7857C61.5611 13.8265 62.0956 13.0089 62.7716 12.3329C63.4567 11.6568 64.2515 11.1316 65.1559 10.757C66.0695 10.3825 67.0424 10.1952 68.0747 10.1952C68.6868 10.1952 69.2852 10.2683 69.8698 10.4144C70.4545 10.5606 71.0072 10.7707 71.5279 11.0448C72.0578 11.3188 72.5511 11.6568 73.0079 12.0588C73.4647 12.4516 73.8666 12.8947 74.2138 13.388L67.1977 21.8429ZM69.1162 14.128C68.9426 14.064 68.769 14.0229 68.5954 14.0047C68.431 13.9864 68.2574 13.9773 68.0747 13.9773C67.5631 13.9773 67.079 14.0732 66.6222 14.265C66.1745 14.4477 65.7817 14.7127 65.4437 15.0598C65.1148 15.407 64.8545 15.8272 64.6626 16.3205C64.4708 16.8047 64.3749 17.3528 64.3749 17.9649C64.3749 18.1019 64.3794 18.2572 64.3886 18.4308C64.4068 18.6044 64.4297 18.7825 64.4571 18.9652C64.4936 19.1388 64.5347 19.3078 64.5804 19.4722C64.6261 19.6367 64.6855 19.7828 64.7586 19.9107L69.1162 14.128Z" fill="url(#paint1_linear_133_24)"/>
<path d="M85.2849 25.4331H76.7341V21.7059H85.2849C85.5406 21.7059 85.7599 21.6145 85.9426 21.4318C86.1253 21.2491 86.2167 21.0298 86.2167 20.774C86.2167 20.5091 86.1253 20.3355 85.9426 20.2533C85.7599 20.1711 85.5406 20.13 85.2849 20.13H81.3931C80.7445 20.13 80.137 20.0067 79.5706 19.76C79.0042 19.5134 78.5109 19.1799 78.0907 18.7597C77.6704 18.3303 77.337 17.8324 77.0903 17.266C76.8528 16.6996 76.7341 16.0921 76.7341 15.4435C76.7341 14.7949 76.8528 14.1874 77.0903 13.621C77.337 13.0546 77.6704 12.5613 78.0907 12.141C78.5109 11.7208 79.0042 11.3919 79.5706 11.1544C80.137 10.9077 80.7445 10.7844 81.3931 10.7844H88.971V14.5117H81.3931C81.1374 14.5117 80.9181 14.603 80.7354 14.7857C80.5527 14.9685 80.4613 15.1877 80.4613 15.4435C80.4613 15.7084 80.5527 15.9368 80.7354 16.1287C80.9181 16.3114 81.1374 16.4027 81.3931 16.4027H85.2849C85.9243 16.4027 86.5273 16.5124 87.0937 16.7316C87.6601 16.9417 88.1534 17.2386 88.5736 17.6223C88.9939 18.006 89.3273 18.4673 89.574 19.0063C89.8206 19.5453 89.9439 20.1346 89.9439 20.774C89.9439 21.4227 89.8206 22.0302 89.574 22.5966C89.3273 23.1538 88.9939 23.6472 88.5736 24.0765C88.1534 24.4968 87.6601 24.8302 87.0937 25.0769C86.5273 25.3144 85.9243 25.4331 85.2849 25.4331Z" fill="url(#paint2_linear_133_24)"/>
<path d="M103.852 23.7202C103.55 23.9943 103.226 24.2547 102.879 24.5013C102.541 24.7388 102.184 24.949 101.81 25.1317C101.435 25.3052 101.047 25.4423 100.645 25.5428C100.252 25.6524 99.8503 25.7072 99.4392 25.7072C98.5348 25.7072 97.6852 25.5473 96.8904 25.2276C96.0956 24.9078 95.3967 24.4556 94.7938 23.871C94.2 23.2772 93.7295 22.56 93.3824 21.7196C93.0443 20.87 92.8753 19.9199 92.8753 18.8693V10.757H96.6026V18.8693C96.6026 19.3626 96.6757 19.8057 96.8219 20.1985C96.9772 20.5822 97.1827 20.9065 97.4385 21.1714C97.6943 21.4364 97.9912 21.6374 98.3292 21.7744C98.6764 21.9114 99.0463 21.9799 99.4392 21.9799C99.8229 21.9799 100.184 21.8931 100.522 21.7196C100.869 21.5369 101.17 21.2993 101.426 21.007C101.682 20.7147 101.883 20.3858 102.029 20.0204C102.175 19.6458 102.248 19.2621 102.248 18.8693V10.757H105.989V25.4331H105.085L103.852 23.7202Z" fill="url(#paint3_linear_133_24)"/>
<path d="M114.142 25.4331L108.551 10.757H112.812L116.019 19.9107L119.212 10.757H123.487L117.896 25.4331H114.142Z" fill="url(#paint4_linear_133_24)"/>
<path d="M130.447 6.76937C130.447 7.11652 130.379 7.44083 130.242 7.7423C130.114 8.04377 129.936 8.3087 129.707 8.53709C129.479 8.75634 129.209 8.93448 128.899 9.07151C128.597 9.19941 128.273 9.26336 127.926 9.26336C127.579 9.26336 127.25 9.19941 126.939 9.07151C126.638 8.93448 126.373 8.75634 126.145 8.53709C125.925 8.3087 125.747 8.04377 125.61 7.7423C125.482 7.44083 125.418 7.11652 125.418 6.76937C125.418 6.43136 125.482 6.11162 125.61 5.81015C125.747 5.49954 125.925 5.23461 126.145 5.01536C126.373 4.78698 126.638 4.60884 126.939 4.48094C127.25 4.34391 127.579 4.27539 127.926 4.27539C128.273 4.27539 128.597 4.34391 128.899 4.48094C129.209 4.60884 129.479 4.78698 129.707 5.01536C129.936 5.23461 130.114 5.49954 130.242 5.81015C130.379 6.11162 130.447 6.43136 130.447 6.76937ZM129.803 25.4331H126.035V10.757H129.803V25.4331Z" fill="url(#paint5_linear_133_24)"/>
<path d="M148 25.4331H147.096L145.643 23.4188C145.287 23.7385 144.908 24.04 144.506 24.3232C144.113 24.5972 143.697 24.8393 143.259 25.0494C142.82 25.2504 142.368 25.4103 141.902 25.5291C141.445 25.6478 140.979 25.7072 140.504 25.7072C139.472 25.7072 138.499 25.5336 137.586 25.1865C136.681 24.8393 135.886 24.3369 135.201 23.6791C134.525 23.0122 133.991 22.1992 133.598 21.24C133.205 20.2807 133.009 19.189 133.009 17.9649C133.009 16.823 133.205 15.7769 133.598 14.8269C133.991 13.8676 134.525 13.0454 135.201 12.3603C135.886 11.6751 136.681 11.1453 137.586 10.7707C138.499 10.387 139.472 10.1952 140.504 10.1952C140.979 10.1952 141.45 10.2546 141.916 10.3733C142.382 10.4921 142.834 10.6565 143.272 10.8666C143.711 11.0767 144.127 11.3234 144.519 11.6066C144.921 11.8898 145.296 12.1958 145.643 12.5247L147.096 10.7844H148V25.4331ZM144.232 17.9649C144.232 17.4533 144.131 16.96 143.93 16.4849C143.738 16.0008 143.473 15.576 143.135 15.2105C142.797 14.836 142.4 14.5391 141.943 14.3198C141.496 14.0915 141.016 13.9773 140.504 13.9773C139.993 13.9773 139.509 14.064 139.052 14.2376C138.604 14.4112 138.211 14.667 137.873 15.005C137.544 15.343 137.284 15.7632 137.092 16.2657C136.9 16.759 136.805 17.3254 136.805 17.9649C136.805 18.6044 136.9 19.1753 137.092 19.6778C137.284 20.1711 137.544 20.5868 137.873 20.9248C138.211 21.2628 138.604 21.5186 139.052 21.6922C139.509 21.8657 139.993 21.9525 140.504 21.9525C141.016 21.9525 141.496 21.8429 141.943 21.6236C142.4 21.3953 142.797 21.0984 143.135 20.7329C143.473 20.3584 143.738 19.9336 143.93 19.4585C144.131 18.9744 144.232 18.4765 144.232 17.9649Z" fill="url(#paint6_linear_133_24)"/>
<defs>
<linearGradient id="paint0_linear_133_24" x1="40.6694" y1="14.9091" x2="150.295" y2="14.9091" gradientUnits="userSpaceOnUse">
<stop stop-color="#FEB63A"/>
<stop offset="0.528846" stop-color="#EB6176"/>
<stop offset="1" stop-color="#3F3D89"/>
</linearGradient>
<linearGradient id="paint1_linear_133_24" x1="40.6694" y1="14.9091" x2="150.295" y2="14.9091" gradientUnits="userSpaceOnUse">
<stop stop-color="#FEB63A"/>
<stop offset="0.528846" stop-color="#EB6176"/>
<stop offset="1" stop-color="#3F3D89"/>
</linearGradient>
<linearGradient id="paint2_linear_133_24" x1="40.6694" y1="14.9091" x2="150.295" y2="14.9091" gradientUnits="userSpaceOnUse">
<stop stop-color="#FEB63A"/>
<stop offset="0.528846" stop-color="#EB6176"/>
<stop offset="1" stop-color="#3F3D89"/>
</linearGradient>
<linearGradient id="paint3_linear_133_24" x1="40.6694" y1="14.9091" x2="150.295" y2="14.9091" gradientUnits="userSpaceOnUse">
<stop stop-color="#FEB63A"/>
<stop offset="0.528846" stop-color="#EB6176"/>
<stop offset="1" stop-color="#3F3D89"/>
</linearGradient>
<linearGradient id="paint4_linear_133_24" x1="40.6694" y1="14.9091" x2="150.295" y2="14.9091" gradientUnits="userSpaceOnUse">
<stop stop-color="#FEB63A"/>
<stop offset="0.528846" stop-color="#EB6176"/>
<stop offset="1" stop-color="#3F3D89"/>
</linearGradient>
<linearGradient id="paint5_linear_133_24" x1="40.6694" y1="14.9091" x2="150.295" y2="14.9091" gradientUnits="userSpaceOnUse">
<stop stop-color="#FEB63A"/>
<stop offset="0.528846" stop-color="#EB6176"/>
<stop offset="1" stop-color="#3F3D89"/>
</linearGradient>
<linearGradient id="paint6_linear_133_24" x1="40.6694" y1="14.9091" x2="150.295" y2="14.9091" gradientUnits="userSpaceOnUse">
<stop stop-color="#FEB63A"/>
<stop offset="0.528846" stop-color="#EB6176"/>
<stop offset="1" stop-color="#3F3D89"/>
</linearGradient>
<clipPath id="clip0_133_24">
<rect width="31.4905" height="31.5722" fill="white"/>
</clipPath>
</defs>
</svg>
