<svg width="252" height="55" viewBox="0 0 252 55" fill="none" xmlns="http://www.w3.org/2000/svg">
<g clip-path="url(#clip0_635_882)">
<path d="M49.4005 0.625H4.18507C1.87372 0.625 0 2.50358 0 4.82093V50.1537C0 52.4711 1.87372 54.3496 4.18507 54.3496H49.4005C51.7119 54.3496 53.5856 52.4711 53.5856 50.1537V4.82093C53.5856 2.50358 51.7119 0.625 49.4005 0.625Z" fill="#3F3D89"/>
<mask id="mask0_635_882" style="mask-type:luminance" maskUnits="userSpaceOnUse" x="0" y="0" width="54" height="55">
<path d="M49.4005 0.625H4.18507C1.87372 0.625 0 2.50358 0 4.82093V50.1537C0 52.4711 1.87372 54.3496 4.18507 54.3496H49.4005C51.7119 54.3496 53.5856 52.4711 53.5856 50.1537V4.82093C53.5856 2.50358 51.7119 0.625 49.4005 0.625Z" fill="white"/>
</mask>
<g mask="url(#mask0_635_882)">
<path d="M26.7726 -31.2213L-11.124 6.77368L26.7726 44.7687L64.6693 6.77368L26.7726 -31.2213Z" fill="#FEB63A"/>
<path d="M26.784 36.2097L0.418213 62.6439L26.784 89.0781L53.1498 62.6439L26.784 36.2097Z" fill="#3F3D89"/>
<path d="M41.1537 29.5175L26.8086 15.1351L12.4634 29.5175L26.8086 43.8999L41.1537 29.5175Z" fill="#FDFCFB"/>
<path d="M26.772 10.5253C25.4621 16.6597 20.6158 21.4787 14.4763 22.7312L26.772 35.0589L39.0678 22.7312C32.9262 21.4787 28.082 16.6597 26.772 10.5253Z" fill="#FDFCFB"/>
<path d="M-2.43463 14.7387L-27.7617 40.1315L-2.43463 65.5243L22.8925 40.1315L-2.43463 14.7387Z" fill="#F96474"/>
<path d="M26.7719 34.8889C29.7766 34.8889 32.2125 32.4467 32.2125 29.4342C32.2125 26.4216 29.7766 23.9795 26.7719 23.9795C23.7671 23.9795 21.3313 26.4216 21.3313 29.4342C21.3313 32.4467 23.7671 34.8889 26.7719 34.8889Z" fill="#3F3D89"/>
<path d="M56.0302 14.744L30.7031 40.1368L56.0302 65.5296L81.3573 40.1368L56.0302 14.744Z" fill="#F96474"/>
</g>
</g>
<path d="M78.9984 17.1574V30.5419H85.6907C86.6079 30.5419 87.4706 30.3709 88.279 30.0289C89.0873 29.6714 89.7946 29.1895 90.4009 28.5832C91.0072 27.9769 91.4813 27.2696 91.8233 26.4613C92.1809 25.6374 92.3596 24.7668 92.3596 23.8497C92.3596 22.9325 92.1809 22.0697 91.8233 21.2614C91.4813 20.4375 91.0072 19.7224 90.4009 19.1161C89.7946 18.5098 89.0873 18.0357 88.279 17.6937C87.4706 17.3362 86.6079 17.1574 85.6907 17.1574H78.9984ZM78.9984 43.9031H72.3062V10.4651H85.6907C86.9188 10.4651 88.1002 10.6284 89.235 10.9548C90.3698 11.2657 91.4269 11.7165 92.4063 12.3072C93.4012 12.8824 94.3028 13.582 95.1111 14.4059C95.935 15.2142 96.6346 16.1159 97.2098 17.1108C97.8005 18.1057 98.2513 19.1705 98.5622 20.3053C98.8887 21.4401 99.0519 22.6216 99.0519 23.8497C99.0519 25 98.9042 26.1193 98.6088 27.2074C98.329 28.2956 97.9171 29.3294 97.373 30.3087C96.8444 31.2881 96.1915 32.1897 95.4143 33.0136C94.637 33.8375 93.7665 34.5526 92.8027 35.1589L96.5102 43.9031H89.3982L86.4835 37.1642L78.9984 37.2109V43.9031Z" fill="url(#paint0_linear_635_882)"/>
<path d="M114.347 37.7938C114.595 37.8715 114.844 37.9259 115.093 37.957C115.342 37.9726 115.59 37.9804 115.839 37.9804C116.461 37.9804 117.059 37.8949 117.634 37.7239C118.21 37.5529 118.746 37.3119 119.243 37.001C119.756 36.6745 120.207 36.2859 120.596 35.8351C121 35.3687 121.326 34.8557 121.575 34.2961L126.239 38.983C125.648 39.8225 124.964 40.5764 124.187 41.2449C123.425 41.9133 122.593 42.4807 121.692 42.9471C120.806 43.4134 119.865 43.7632 118.87 43.9964C117.891 44.2451 116.881 44.3695 115.839 44.3695C114.082 44.3695 112.427 44.043 110.872 43.3901C109.333 42.7372 107.981 41.8278 106.815 40.6619C105.665 39.496 104.755 38.1125 104.087 36.5113C103.418 34.8946 103.084 33.1224 103.084 31.1948C103.084 29.2206 103.418 27.4173 104.087 25.785C104.755 24.1528 105.665 22.7615 106.815 21.6111C107.981 20.4608 109.333 19.5669 110.872 18.9296C112.427 18.2922 114.082 17.9735 115.839 17.9735C116.881 17.9735 117.899 18.0979 118.894 18.3466C119.889 18.5953 120.829 18.9529 121.715 19.4192C122.617 19.8856 123.456 20.4608 124.233 21.1448C125.011 21.8132 125.695 22.5672 126.285 23.4066L114.347 37.7938ZM117.611 24.6658C117.316 24.557 117.02 24.487 116.725 24.4559C116.445 24.4248 116.15 24.4093 115.839 24.4093C114.968 24.4093 114.145 24.5725 113.367 24.899C112.606 25.2099 111.937 25.6607 111.362 26.2514C110.802 26.8421 110.359 27.5572 110.033 28.3967C109.706 29.2206 109.543 30.1533 109.543 31.1948C109.543 31.428 109.551 31.6923 109.566 31.9876C109.598 32.283 109.636 32.5861 109.683 32.897C109.745 33.1924 109.815 33.48 109.893 33.7598C109.971 34.0396 110.072 34.2883 110.196 34.506L117.611 24.6658Z" fill="url(#paint1_linear_635_882)"/>
<path d="M145.125 43.9031H130.574V37.5606H145.125C145.56 37.5606 145.933 37.4052 146.244 37.0943C146.555 36.7834 146.71 36.4103 146.71 35.975C146.71 35.5242 146.555 35.2288 146.244 35.0889C145.933 34.949 145.56 34.8791 145.125 34.8791H138.502C137.398 34.8791 136.365 34.6692 135.401 34.2495C134.437 33.8298 133.598 33.2623 132.883 32.5473C132.167 31.8166 131.6 30.9694 131.18 30.0056C130.776 29.0418 130.574 28.008 130.574 26.9043C130.574 25.8006 130.776 24.7668 131.18 23.803C131.6 22.8392 132.167 21.9998 132.883 21.2847C133.598 20.5696 134.437 20.01 135.401 19.6058C136.365 19.1861 137.398 18.9762 138.502 18.9762H151.397V25.3187H138.502C138.067 25.3187 137.694 25.4741 137.383 25.785C137.072 26.096 136.917 26.469 136.917 26.9043C136.917 27.3551 137.072 27.7438 137.383 28.0702C137.694 28.3811 138.067 28.5366 138.502 28.5366H145.125C146.213 28.5366 147.239 28.7231 148.202 29.0962C149.166 29.4537 150.006 29.959 150.721 30.6119C151.436 31.2648 152.003 32.0498 152.423 32.967C152.843 33.8842 153.053 34.8868 153.053 35.975C153.053 37.0787 152.843 38.1125 152.423 39.0763C152.003 40.0246 151.436 40.864 150.721 41.5946C150.006 42.3097 149.166 42.8771 148.202 43.2969C147.239 43.701 146.213 43.9031 145.125 43.9031Z" fill="url(#paint2_linear_635_882)"/>
<path d="M176.719 40.9884C176.206 41.4547 175.654 41.8978 175.063 42.3175C174.488 42.7217 173.881 43.0792 173.244 43.3901C172.607 43.6855 171.946 43.9187 171.262 44.0897C170.594 44.2762 169.91 44.3695 169.21 44.3695C167.671 44.3695 166.225 44.0974 164.873 43.5534C163.521 43.0093 162.331 42.2398 161.305 41.2449C160.295 40.2344 159.494 39.0141 158.904 37.5839C158.328 36.1382 158.041 34.5215 158.041 32.7338V18.9296H164.383V32.7338C164.383 33.5733 164.508 34.3272 164.756 34.9956C165.021 35.6486 165.37 36.2004 165.806 36.6512C166.241 37.102 166.746 37.444 167.321 37.6772C167.912 37.9104 168.542 38.027 169.21 38.027C169.863 38.027 170.477 37.8793 171.052 37.5839C171.643 37.273 172.156 36.8689 172.591 36.3714C173.026 35.874 173.368 35.3143 173.617 34.6925C173.866 34.0552 173.99 33.4023 173.99 32.7338V18.9296H180.356V43.9031H178.817L176.719 40.9884Z" fill="url(#paint3_linear_635_882)"/>
<path d="M194.228 43.9031L184.715 18.9296H191.967L197.423 34.506L202.856 18.9296H210.131L200.618 43.9031H194.228Z" fill="url(#paint4_linear_635_882)"/>
<path d="M221.975 12.144C221.975 12.7347 221.858 13.2866 221.625 13.7996C221.408 14.3126 221.104 14.7634 220.716 15.152C220.327 15.5251 219.869 15.8283 219.34 16.0614C218.827 16.2791 218.275 16.3879 217.684 16.3879C217.094 16.3879 216.534 16.2791 216.006 16.0614C215.493 15.8283 215.042 15.5251 214.653 15.152C214.28 14.7634 213.977 14.3126 213.744 13.7996C213.526 13.2866 213.417 12.7347 213.417 12.144C213.417 11.5688 213.526 11.0248 213.744 10.5118C213.977 9.98322 214.28 9.53241 214.653 9.15932C215.042 8.77068 215.493 8.46755 216.006 8.24992C216.534 8.01674 217.094 7.90015 217.684 7.90015C218.275 7.90015 218.827 8.01674 219.34 8.24992C219.869 8.46755 220.327 8.77068 220.716 9.15932C221.104 9.53241 221.408 9.98322 221.625 10.5118C221.858 11.0248 221.975 11.5688 221.975 12.144ZM220.879 43.9031H214.467V18.9296H220.879V43.9031Z" fill="url(#paint5_linear_635_882)"/>
<path d="M251.843 43.9031H250.304L247.833 40.4754C247.227 41.0195 246.581 41.5325 245.897 42.0144C245.229 42.4807 244.522 42.8927 243.775 43.2502C243.029 43.5922 242.26 43.8643 241.467 44.0663C240.69 44.2684 239.897 44.3695 239.089 44.3695C237.332 44.3695 235.676 44.0741 234.122 43.4834C232.583 42.8927 231.23 42.0377 230.064 40.9184C228.914 39.7836 228.005 38.4001 227.336 36.7678C226.668 35.1356 226.334 33.2779 226.334 31.1948C226.334 29.2517 226.668 27.4717 227.336 25.855C228.005 24.2227 228.914 22.8237 230.064 21.6578C231.23 20.4919 232.583 19.5902 234.122 18.9529C235.676 18.3 237.332 17.9735 239.089 17.9735C239.897 17.9735 240.697 18.0746 241.49 18.2767C242.283 18.4787 243.053 18.7586 243.799 19.1161C244.545 19.4736 245.252 19.8934 245.921 20.3753C246.605 20.8572 247.242 21.3779 247.833 21.9376L250.304 18.9762H251.843V43.9031ZM245.431 31.1948C245.431 30.3243 245.26 29.4848 244.918 28.6765C244.592 27.8526 244.141 27.1297 243.566 26.5079C242.99 25.8705 242.314 25.3653 241.537 24.9922C240.775 24.6036 239.959 24.4093 239.089 24.4093C238.218 24.4093 237.394 24.557 236.617 24.8523C235.855 25.1477 235.187 25.583 234.611 26.1581C234.052 26.7333 233.609 27.4484 233.282 28.3034C232.956 29.1428 232.793 30.1066 232.793 31.1948C232.793 32.283 232.956 33.2546 233.282 34.1096C233.609 34.949 234.052 35.6563 234.611 36.2315C235.187 36.8067 235.855 37.2419 236.617 37.5373C237.394 37.8327 238.218 37.9804 239.089 37.9804C239.959 37.9804 240.775 37.7938 241.537 37.4207C242.314 37.0321 242.99 36.5269 243.566 35.9051C244.141 35.2677 244.592 34.5448 244.918 33.7365C245.26 32.9126 245.431 32.0654 245.431 31.1948Z" fill="url(#paint6_linear_635_882)"/>
<defs>
<linearGradient id="paint0_linear_635_882" x1="69.2049" y1="25.9949" x2="255.749" y2="25.9949" gradientUnits="userSpaceOnUse">
<stop stop-color="#FEB63A"/>
<stop offset="0.528846" stop-color="#EB6176"/>
<stop offset="1" stop-color="#3F3D89"/>
</linearGradient>
<linearGradient id="paint1_linear_635_882" x1="69.2049" y1="25.9949" x2="255.749" y2="25.9949" gradientUnits="userSpaceOnUse">
<stop stop-color="#FEB63A"/>
<stop offset="0.528846" stop-color="#EB6176"/>
<stop offset="1" stop-color="#3F3D89"/>
</linearGradient>
<linearGradient id="paint2_linear_635_882" x1="69.2049" y1="25.9949" x2="255.749" y2="25.9949" gradientUnits="userSpaceOnUse">
<stop stop-color="#FEB63A"/>
<stop offset="0.528846" stop-color="#EB6176"/>
<stop offset="1" stop-color="#3F3D89"/>
</linearGradient>
<linearGradient id="paint3_linear_635_882" x1="69.2049" y1="25.9949" x2="255.749" y2="25.9949" gradientUnits="userSpaceOnUse">
<stop stop-color="#FEB63A"/>
<stop offset="0.528846" stop-color="#EB6176"/>
<stop offset="1" stop-color="#3F3D89"/>
</linearGradient>
<linearGradient id="paint4_linear_635_882" x1="69.2049" y1="25.9949" x2="255.749" y2="25.9949" gradientUnits="userSpaceOnUse">
<stop stop-color="#FEB63A"/>
<stop offset="0.528846" stop-color="#EB6176"/>
<stop offset="1" stop-color="#3F3D89"/>
</linearGradient>
<linearGradient id="paint5_linear_635_882" x1="69.2049" y1="25.9949" x2="255.749" y2="25.9949" gradientUnits="userSpaceOnUse">
<stop stop-color="#FEB63A"/>
<stop offset="0.528846" stop-color="#EB6176"/>
<stop offset="1" stop-color="#3F3D89"/>
</linearGradient>
<linearGradient id="paint6_linear_635_882" x1="69.2049" y1="25.9949" x2="255.749" y2="25.9949" gradientUnits="userSpaceOnUse">
<stop stop-color="#FEB63A"/>
<stop offset="0.528846" stop-color="#EB6176"/>
<stop offset="1" stop-color="#3F3D89"/>
</linearGradient>
<clipPath id="clip0_635_882">
<rect width="53.5856" height="53.7246" fill="white" transform="translate(0 0.625)"/>
</clipPath>
</defs>
</svg>
